<svg xmlns="http://www.w3.org/2000/svg" xmlns:xlink="http://www.w3.org/1999/xlink" width="117.287" height="37.423" viewBox="0 0 117.287 37.423">
  <defs>
    <clipPath id="clip-path">
      <rect id="Rectangle_1" data-name="Rectangle 1" width="21" height="27" transform="translate(12 11)" fill="#fff"/>
    </clipPath>
  </defs>
  <g id="Group_2" data-name="Group 2" transform="translate(-0.522 -0.576)">
    <path id="Path_1" data-name="Path 1" d="M38.05,12.64V12.1h7.32a6.192,6.192,0,0,1,4.29,1.56,5.191,5.191,0,0,1,1.77,4.14,5.282,5.282,0,0,1-1.77,4.17,6.264,6.264,0,0,1-4.29,1.53H42.34v6.54a.371.371,0,0,0,.42.42h2.01V31H38.05v-.54h1.41a.371.371,0,0,0,.42-.42V13q0-.36-.42-.36Zm7.17.3H42.34v9.72h2.88a3.239,3.239,0,0,0,2.79-1.44,5.85,5.85,0,0,0,1.02-3.42,5.713,5.713,0,0,0-1.02-3.39A3.22,3.22,0,0,0,45.22,12.94Zm8.5,17.1V12.52a.371.371,0,0,0-.42-.42H51.89v-.54h1.47a11.925,11.925,0,0,0,2.52-.18V30.04a.371.371,0,0,0,.42.42h1.41V31H51.89v-.54H53.3A.371.371,0,0,0,53.72,30.04Zm12.867-6.03.03-1.05V21.91q0-3.51-2.28-3.51a1.915,1.915,0,0,0-1.56.69,2.387,2.387,0,0,0-.54,1.56,4.567,4.567,0,0,0,.24,1.56,2.058,2.058,0,0,1-1.41.45q-.9,0-.9-1.47a3.217,3.217,0,0,1,1.14-2.49,4.864,4.864,0,0,1,3.3-1.02q4.17,0,4.17,4.92v6.15q0,1.62.9,1.62a.886.886,0,0,0,.72-.39,1.352,1.352,0,0,0,.33-.9,4.891,4.891,0,0,0-.09-.96l.57-.09a3.837,3.837,0,0,1,.12.99,2.215,2.215,0,0,1-2.34,2.34,2.076,2.076,0,0,1-1.71-.84,4.23,4.23,0,0,1-.66-2.58V27.4a5.662,5.662,0,0,1-1.62,3,3.824,3.824,0,0,1-2.58.96,3.165,3.165,0,0,1-2.34-.9,3.511,3.511,0,0,1,.54-5.13,6.08,6.08,0,0,1,4.05-1.2q.57,0,1.92.15Zm-3.48,6.21a2.78,2.78,0,0,0,2.25-1.41,7.845,7.845,0,0,0,1.2-4.02q-.3-.03-.84-.03a4.839,4.839,0,0,0-3.45,1.02,3.122,3.122,0,0,0-1.02,2.31,2.31,2.31,0,0,0,.51,1.5A1.651,1.651,0,0,0,63.107,30.22Zm21.63-7.98V30.1q0,.36.42.36h1.41V31h-5.4v-.54h.99q.42,0,.42-.36V21.85a3.156,3.156,0,0,0-.69-2.25,2.24,2.24,0,0,0-1.77-.75,2.976,2.976,0,0,0-2.58,1.86,11.031,11.031,0,0,0-1.02,5.28v4.05a.371.371,0,0,0,.42.42h.99V31h-5.4v-.54h1.41q.42,0,.42-.36V19a.371.371,0,0,0-.42-.42h-1.41v-.54H74a11.926,11.926,0,0,0,2.52-.18v4.08q1.02-4.26,4.5-4.26a3.5,3.5,0,0,1,2.64,1.14A4.741,4.741,0,0,1,84.737,22.24Zm6.415-7.38h.45v3.18h3v.54h-3V28.75q0,1.62.9,1.62a.886.886,0,0,0,.72-.39,1.352,1.352,0,0,0,.33-.9,4.891,4.891,0,0,0-.09-.96l.57-.09a3.837,3.837,0,0,1,.12.99,2.215,2.215,0,0,1-2.34,2.34,2.076,2.076,0,0,1-1.71-.84,4.23,4.23,0,0,1-.66-2.58V19a.371.371,0,0,0-.42-.42h-1.41v-.54h1.47Q90.042,18.04,91.152,14.86Zm6.193,15.18V12.52a.371.371,0,0,0-.42-.42h-1.41v-.54h1.47a11.926,11.926,0,0,0,2.52-.18V30.04a.371.371,0,0,0,.42.42h1.41V31h-5.82v-.54h1.41A.371.371,0,0,0,97.345,30.04Zm12.987-12h3.81v.54h-1.11q-.27,0-.42.42l-5.19,13.89q-.09.27-.3.81l-.33.81q-.09.27-.27.72-.18.48-.3.72-.12.27-.3.63a2.958,2.958,0,0,1-.6.84,1.117,1.117,0,0,1-.81.42,1.3,1.3,0,0,1-.9-.54,2.142,2.142,0,0,1-.54-1.11,6.51,6.51,0,0,0,3.72-3.9l.51-1.38L102.862,19q-.15-.42-.42-.42h-1.11v-.54h5.1v.54h-1.5l3.45,9.48,3.48-9.48h-1.53Zm4.6,12.84a1.694,1.694,0,0,1-.48-1.2,1.592,1.592,0,0,1,.48-1.17,1.642,1.642,0,0,1,1.2-.51,1.745,1.745,0,0,1,1.68,1.68,1.642,1.642,0,0,1-.51,1.2,1.592,1.592,0,0,1-1.17.48A1.694,1.694,0,0,1,114.929,30.88Z" fill="#0b0b0d"/>
    <path id="Path_2" data-name="Path 2" d="M13.018,35.271C-3.769,26.532-.084,8.5,3.857.576,24.3,5.364,22,25.576,18.291,35.083c-9.985-13.44-9.214-21.427-10.1-16.62C7.485,22.309,11.115,31.271,13.018,35.271Z" fill="#bed579"/>
    <g id="Group_1" data-name="Group 1" clip-path="url(#clip-path)">
      <path id="Path_3" data-name="Path 3" d="M17.288,29.954c10.46,0,11.3-11.441,11.37-16.878a1.383,1.383,0,0,0-.066-.431,1.161,1.161,0,0,0-.191-.364.874.874,0,0,0-.287-.24.693.693,0,0,0-.336-.077c-14.864.351-14.864,9.616-14.864,17.99v4.5" fill="none" stroke="#3d713c" stroke-linecap="round" stroke-linejoin="round" stroke-width="2"/>
      <path id="Path_4" data-name="Path 4" d="M12.913,29.954a8.1,8.1,0,0,1,7-7.875" fill="none" stroke="#3d713c" stroke-linecap="round" stroke-linejoin="round" stroke-width="2"/>
    </g>
  </g>
</svg>
